<?xml version="1.0" standalone="no"?>
<!DOCTYPE svg PUBLIC "-//W3C//DTD SVG 20010904//EN"
 "http://www.w3.org/TR/2001/REC-SVG-20010904/DTD/svg10.dtd">
<svg version="1.0" xmlns="http://www.w3.org/2000/svg"
 width="480.000000pt" height="480.000000pt" viewBox="0 0 480.000000 480.000000"
 preserveAspectRatio="xMidYMid meet">
<metadata>
Created by potrace 1.11, written by Peter Selinger 2001-2013
</metadata>
<g transform="translate(0.000000,480.000000) scale(0.100000,-0.100000)"
fill="#000000" stroke="none">
<path d="M2145 4675 c-664 -77 -1258 -436 -1636 -990 -187 -273 -319 -603
-368 -920 -6 -38 -13 -86 -17 -105 -8 -48 -12 -425 -5 -478 l6 -44 589 586
c324 323 592 588 597 589 5 1 600 -589 1322 -1311 l1312 -1313 92 93 c89 89
212 235 213 251 0 4 -452 459 -1004 1012 l-1004 1005 123 122 c67 68 129 129
138 136 13 11 140 -112 986 -959 534 -535 972 -971 974 -968 29 37 146 348
162 430 2 11 7 24 11 30 3 6 -253 270 -587 605 -327 327 -595 598 -597 602 -1
4 58 68 132 141 l135 134 486 -486 c268 -268 489 -487 492 -487 17 0 -17 396
-43 500 -3 14 -8 34 -10 44 -44 224 -169 522 -311 745 -114 178 -324 411 -493
547 -210 168 -476 310 -735 393 -128 42 -206 60 -330 80 -38 6 -86 13 -105 17
-70 12 -416 11 -525 -1z"/>
<path d="M790 2259 c-283 -285 -528 -532 -543 -547 l-29 -29 47 -119 c122
-309 286 -558 524 -794 191 -190 374 -322 606 -434 169 -82 363 -153 470 -172
17 -3 47 -9 68 -15 21 -6 53 -12 70 -14 18 -2 48 -7 67 -10 19 -3 51 -8 70
-11 58 -10 421 -12 485 -4 33 5 82 11 108 15 138 17 410 90 515 136 26 12 63
28 82 36 60 26 182 89 242 125 l57 34 -1158 1162 c-637 639 -1160 1161 -1162
1161 -2 -1 -236 -235 -519 -520z"/>
</g>
</svg>
