<svg height="380" viewBox="0 0 1183 380" width="1183" xmlns="http://www.w3.org/2000/svg"><g fill="none" fill-rule="evenodd"><path d="m99.586 113.054 217.834 217.834.008.01c9.497-8.597 18.119-18.141 25.72-28.482l-.006.009-166.696-166.696 22.674-22.675 161.186 161.187.056-.115c6.181-12.502 11.028-25.781 14.353-39.652l-.123-.133-98.612-98.612 22.674-22.675 81.215 81.216.026.028c.032-1.419.047-2.842.047-4.269 0-104.918-85.053-189.971-189.971-189.971s-189.971 85.053-189.971 189.971c0 7.193.4 14.293 1.179 21.278l.054.231 98.484-98.484 22.674 22.675" fill="#24a2c7"/><path d="m291.684 350.501-191.989-191.99-.06-.027-90.253 90.253-.11.084c24.757 76.142 96.301 131.179 180.699 131.179 37.415 0 72.304-10.816 101.71-29.493z" fill="#a7a8a7"/><g fill="#24a2c7"><path d="m478.98 162.563c3.194.811 7.193 1.096 11.91 1.096 17.417 0 27.937-7.499 27.937-20.826 0-12.915-10.505-19.227-26.261-19.227-6.334 0-11.051.519-13.586.996zm-14.352-46.979c6.931-1.082 16.009-1.946 27.643-1.946 14.101 0 24.53 2.861 31.173 8.109 6.032 4.667 9.78 11.736 9.78 20.42 0 8.841-3.004 15.819-8.645 20.874-7.666 7.132-19.95 10.685-33.985 10.685-4.358 0-8.3-.142-11.614-.909v39.128h-14.352z"/><path d="m566.761 160.139h14.677c15.373 0 25.107-7.342 25.107-18.521 0-12.673-10.417-18.174-25.566-18.196-6.966 0-11.781.557-14.218 1.11zm-14.352-44.403c7.289-1.283 17.749-2.098 27.622-2.098 15.247 0 25.295 2.543 32.227 8.029 5.492 4.27 8.722 10.913 8.722 18.543 0 12.814-9.327 21.336-20.961 24.855v.355c8.48 2.609 13.605 9.641 16.308 19.753 3.658 13.633 6.292 22.959 8.552 26.772h-14.898c-1.749-2.822-4.261-11.139-7.305-23.354-3.3-13.356-9.316-18.539-22.322-18.917h-13.593v42.271h-14.352z"/><path d="m698.733 166.215h-43.114v35.235h48.22v10.495h-62.66v-97.547h60.119v10.495h-45.679v30.892h43.114z"/><path d="m800.093 208.817c-5.188 2.289-15.839 4.648-29.392 4.648-31.325 0-54.819-17.384-54.819-49.41 0-30.615 23.531-51.177 58.051-51.177 13.738 0 22.605 2.554 26.389 4.291l-3.538 10.255c-5.404-2.253-13.128-4.015-22.371-4.015-26.117 0-43.378 14.633-43.378 40.247 0 23.866 15.68 39.115 42.615 39.115 8.834 0 17.727-1.559 23.558-4z"/><path d="m818.06 211.945h14.439v-97.547h-14.439z"/><path d="m855.64 196.592c6.418 3.523 15.793 6.321 25.661 6.321 14.688 0 23.325-6.729 23.325-16.609 0-9.045-6.029-14.375-21.032-19.301-18.15-5.648-29.41-14.022-29.41-27.67 0-15.185 14.391-26.455 36.05-26.455 11.291 0 19.684 2.297 24.534 4.715l-4.009 10.327c-3.544-1.845-10.987-4.63-20.999-4.63-15.276 0-21.046 7.94-21.046 14.586 0 9.057 6.764 13.525 22.116 18.728 18.864 6.491 28.364 14.432 28.364 28.733 0 14.963-12.568 28.128-38.916 28.128-10.753 0-22.477-2.848-28.414-6.363z"/><path d="m938.841 211.945h14.44v-97.547h-14.44z"/><path d="m986.989 163.736c0 20.873 12.923 39.554 35.581 39.554 22.81 0 35.62-18.377 35.62-40.541 0-19.42-11.55-39.695-35.44-39.695-23.876 0-35.761 19.345-35.761 40.682zm86.401-1.542c0 33.47-23.26 51.343-51.6 51.343-29.5 0-49.991-20.03-49.991-49.508 0-30.908 21.808-51.223 51.491-51.223 30.38 0 50.1 20.406 50.1 49.388z"/><path d="m1091.96 211.945v-97.547h15.8l35.62 49.301c8.13 11.443 14.59 21.697 19.84 31.763l.37-.151c-1.31-13.022-1.57-24.917-1.57-40.03v-40.883h13.53v97.547h-14.59l-35.35-49.444c-7.66-10.93-15.13-22.055-20.69-32.662l-.49.151c.86 12.363 1.06 24.118 1.06 40.243v41.712z"/><path d="m466.768 268.76c0 13.917 8.917 26.37 24.549 26.37 15.741 0 24.584-12.252 24.584-27.028 0-12.945-7.97-26.463-24.46-26.463-16.471 0-24.673 12.898-24.673 27.121zm59.617-1.027c0 22.313-16.045 34.229-35.607 34.229-20.352 0-34.493-13.353-34.493-33.006 0-20.605 15.049-34.149 35.536-34.149 20.956 0 34.564 13.605 34.564 32.926z"/><path d="m549.111 266.363h10.127c10.608 0 17.325-4.896 17.325-12.347 0-8.449-7.188-12.117-17.642-12.131-4.806 0-8.129.371-9.81.74zm-9.905-29.602c5.031-.856 12.249-1.399 19.061-1.399 10.522 0 17.454 1.695 22.238 5.352 3.789 2.846 6.019 7.275 6.019 12.362 0 8.543-6.438 14.225-14.464 16.57v.237c5.852 1.739 9.388 6.429 11.252 13.169 2.525 9.089 4.343 15.305 5.902 17.848h-10.279c-1.207-1.881-2.942-7.426-5.042-15.57-2.277-8.904-6.428-12.358-15.403-12.611h-9.379v28.181h-9.905z"/><path d="m638.685 273.896-7.597-18.716c-1.665-4.257-2.818-8.13-3.953-11.864h-.269c-1.098 3.801-2.296 7.774-3.804 11.751l-7.561 18.829zm-25.201 6.565-7.929 20.439h-10.275l26.099-65.031h11.919l26.208 65.031h-10.6l-8.218-20.439z"/><path d="m670.714 235.869h9.963v57.943h32.811v7.088h-42.774z"/><path d="m747.314 290.664c4.428 2.349 10.897 4.214 17.706 4.214 10.136 0 16.096-4.486 16.096-11.072 0-6.03-4.161-9.584-14.514-12.867-12.524-3.767-20.294-9.348-20.294-18.447 0-10.124 9.931-17.637 24.876-17.637 7.793 0 13.582 1.532 16.929 3.144l-2.765 6.885c-2.445-1.231-7.581-3.088-14.491-3.088-10.541 0-14.522 5.293-14.522 9.726 0 6.036 4.667 9.016 15.261 12.483 13.017 4.328 19.572 9.621 19.572 19.156 0 9.975-8.672 18.752-26.854 18.752-7.42 0-15.51-1.898-19.606-4.242z"/><path d="m814.648 235.869v38.542c0 14.506 7.596 20.66 17.946 20.66 11.294 0 18.662-6.374 18.662-20.66v-38.542h9.963v37.943c0 19.991-12.401 28.15-29.041 28.15-15.665 0-27.493-7.577-27.493-27.784v-38.309z"/><path d="m888.299 266.363h10.127c10.608 0 17.325-4.896 17.325-12.347 0-8.449-7.188-12.117-17.641-12.131-4.807 0-8.129.371-9.811.74zm-9.905-29.602c5.032-.856 12.249-1.399 19.062-1.399 10.521 0 17.453 1.695 22.237 5.352 3.79 2.846 6.019 7.275 6.019 12.362 0 8.543-6.437 14.225-14.463 16.57v.237c5.851 1.739 9.387 6.429 11.252 13.169 2.525 9.089 4.342 15.305 5.901 17.848h-10.279c-1.207-1.881-2.942-7.426-5.041-15.57-2.278-8.904-6.428-12.358-15.404-12.611h-9.379v28.181h-9.905z"/><path d="m998.482 297.979c-4.443 1.421-13.255 3.572-23.593 3.572-11.634 0-21.23-2.493-28.696-8.594-6.613-5.394-10.688-14.024-10.672-24.145.035-19.397 15.775-33.594 41.489-33.594 8.867 0 15.895 1.652 19.193 2.981l-2.476 6.851c-4.088-1.577-9.209-2.782-16.952-2.782-18.617 0-30.822 9.819-30.822 26.106 0 16.478 11.667 26.236 29.621 26.236 6.479 0 10.879-.773 13.168-1.752v-19.372h-15.53v-6.718h25.27z"/><path d="m1053.26 270.413h-29.75v23.49h33.27v6.997h-43.23v-65.031h41.48v6.996h-31.52v20.596h29.75z"/><path d="m1079.47 266.363h10.13c10.61 0 17.32-4.896 17.32-12.347 0-8.449-7.19-12.117-17.64-12.131-4.81 0-8.13.371-9.81.74zm-9.9-29.602c5.03-.856 12.24-1.399 19.06-1.399 10.52 0 17.45 1.695 22.23 5.352 3.79 2.846 6.02 7.275 6.02 12.362 0 8.543-6.43 14.225-14.46 16.57v.237c5.85 1.739 9.39 6.429 11.25 13.169 2.53 9.089 4.34 15.305 5.9 17.848h-10.28c-1.2-1.881-2.94-7.426-5.04-15.57-2.27-8.904-6.43-12.358-15.4-12.611h-9.38v28.181h-9.9z"/><path d="m1146.74 300.9v-27.567l-24.33-37.464h11.35l10.77 17.964c2.92 4.929 5.27 8.868 7.63 13.419h.23c2.11-4.275 4.74-8.535 7.7-13.471l11.06-17.912h11.23l-25.68 37.336v27.695z"/></g></g></svg>